<svg xmlns="http://www.w3.org/2000/svg" viewBox="0 0 265.047 265.047">
  <defs>
    <style>
      .cls-1 {
        fill: #e0e0e0;
      }
    </style>
  </defs>
  <path id="Subtraction_1" data-name="Subtraction 1" class="cls-1" d="M132.523,265.047c-2.289,0-4.605-.059-6.883-.176h13.767C137.119,264.988,134.8,265.047,132.523,265.047ZM41.687,229.019h0A132.849,132.849,0,0,1,11.22,185.971,131.844,131.844,0,0,1,2.9,160.248a133.787,133.787,0,0,1-.212-54.432A131.8,131.8,0,0,1,22.633,58.428,132.91,132.91,0,0,1,80.939,10.414a131.854,131.854,0,0,1,24.876-7.722,133.817,133.817,0,0,1,53.416,0,131.8,131.8,0,0,1,47.387,19.941,132.91,132.91,0,0,1,48.014,58.306,131.857,131.857,0,0,1,7.722,24.876,133.784,133.784,0,0,1-.181,54.285,131.869,131.869,0,0,1-21.222,48.637,133.526,133.526,0,0,1-17.17,19.882V222.9c0-20.7-18.1-43.692-42.11-53.489-6.142,10.482-12.348,17.092-19.53,20.8-16.551,8.456-29.1,15.5-29.226,15.569l-.046-.045V205.6l-.137.091-.137-.091v.137l-.046.045c-.113-.063-12.512-6.963-29.226-15.569A38.119,38.119,0,0,1,92.52,181.62,75.192,75.192,0,0,1,83.8,169.409c-24.006,9.778-42.109,32.773-42.109,53.489v6.121ZM131,20.138c-37.175,0-67.42,37.78-67.42,84.218,0,17.987,1.644,31.266,5.025,40.6,3,8.291,7.5,13.64,13.731,16.354a24.8,24.8,0,0,0,6.875,1.957,48.471,48.471,0,0,0,7.226.483c4.828,0,10.037-.507,15.552-1.044h0c3.771-.367,7.67-.747,11.679-.986a30.145,30.145,0,0,0,14.886-.045c3.354.163,6.642.406,9.822.64,5.074.374,9.865.727,14.375.727,8.924,0,18.967-1.221,25.789-10.277,6.739-8.945,9.878-24.326,9.878-48.4C198.425,57.918,168.18,20.138,131,20.138Zm.092,133.975a27.527,27.527,0,0,1-14.215-4.264,50.424,50.424,0,0,1-12.542-11.14,82.733,82.733,0,0,1-10.067-15.535,95,95,0,0,1-6.789-17.452l-.728-2.686-2.731-.364c-3.328-.456-7.556-4.23-9.2-10.561a18.52,18.52,0,0,1-.529-6.254,12.6,12.6,0,0,1,1.622-5.264,6.155,6.155,0,0,1,2.549-2.5c2.907,4.032,7.744,6.163,13.989,6.163,8.465,0,18.366-3.955,27.165-10.852a60.466,60.466,0,0,0,10.333-10.379h.011a9.139,9.139,0,0,1,1.082.181,24.051,24.051,0,0,1,3.389.942c.376.124.765.253,1.164.378.466.225.955.439,1.428.647a21.456,21.456,0,0,1,2.9,1.447,25.061,25.061,0,0,1,2.928,1.874c.339.24.689.488,1.033.721.322.283.661.568.989.843a21.736,21.736,0,0,1,2.38,2.206,24,24,0,0,1,2.686,3.141,21.083,21.083,0,0,1,1.556,2.253c.154.246.3.478.447.706a13.754,13.754,0,0,1,1.365,2.458c.66,1.364,1.074,2.2,1.092,2.23,0-.007-.137-.87-.408-2.457a22.844,22.844,0,0,0-.591-2.819l-.005-.02a23.509,23.509,0,0,0-1.133-3.625,35.736,35.736,0,0,0-1.821-4.142,28.081,28.081,0,0,0-1.846-3.161l0,0c-.26-.405-.529-.825-.793-1.251-.34-.421-.678-.864-1.006-1.292a29.773,29.773,0,0,0-2.544-3.032,32.222,32.222,0,0,0-3.329-3.143l-.01-.008c-.324-.279-.659-.567-.987-.855L139.583,57l-.005,0a41.3,41.3,0,0,0-4.157-2.711,35.4,35.4,0,0,0,1.683-4.233c7.025,3.172,12.116,6.47,16.024,10.379a45.522,45.522,0,0,1,8.156,11.1A74.537,74.537,0,0,1,165.4,81.2c1.531,4.2,2.542,6.972,4.663,6.972,1.456,0,3.409-1.3,6.331-4.21a35.084,35.084,0,0,0,5.053-6.328h.019c.11,0,.22,0,.327-.006s.22-.006.328-.006a2.467,2.467,0,0,1,.6.057,5.964,5.964,0,0,1,3.551,2.914,12.608,12.608,0,0,1,1.622,5.264,18.506,18.506,0,0,1-.529,6.254,17.294,17.294,0,0,1-3.949,7.517,9.038,9.038,0,0,1-5.247,3.044l-2.731.364-.728,2.686a94.245,94.245,0,0,1-6.769,17.452,82.486,82.486,0,0,1-10.068,15.535,50.447,50.447,0,0,1-12.552,11.14A27.554,27.554,0,0,1,131.1,154.113Z"/>
</svg>
