<svg xmlns="http://www.w3.org/2000/svg" viewBox="0 0 265.048 265.048">
  <defs>
    <style>
      .cls-1 {
        fill: #e0e0e0;
      }
    </style>
  </defs>
  <path id="Subtraction_2" data-name="Subtraction 2" class="cls-1" d="M4127.523,9731c-.726,0-1.5-.007-2.289-.02h4.577C4128.957,9730.994,4128.208,9731,4127.523,9731Zm-107.2-54.6h0A131.913,131.913,0,0,1,3995,9598.477a133.483,133.483,0,0,1,2.692-26.708,131.828,131.828,0,0,1,19.94-47.388,132.916,132.916,0,0,1,58.306-48.014,131.873,131.873,0,0,1,24.877-7.723,133.816,133.816,0,0,1,53.416,0,131.813,131.813,0,0,1,47.388,19.941,132.9,132.9,0,0,1,48.014,58.308,131.867,131.867,0,0,1,7.722,24.875,133.465,133.465,0,0,1-3.937,68.212,131.952,131.952,0,0,1-18.474,36.122,81.523,81.523,0,0,0-20.958-17.543,47.362,47.362,0,0,0-9.5-4.3h-15.348a30.667,30.667,0,0,1-30.691-30.69v-9.859a77.016,77.016,0,0,0,14.688-27.7,5.031,5.031,0,0,1,2.018-2.761l.005,0a13.029,13.029,0,0,0,1.02-.944,18.858,18.858,0,0,0,2.623-22.844,9.86,9.86,0,0,0-.6-.9l0-.006a3.917,3.917,0,0,1-1.016-2.421c0-2.531,0-5.111.007-7.606v-.632c.009-6.136.019-12.48-.021-18.765-.274-12.3-4.165-23.019-10.955-30.189-7.239-7.65-16.659-10.757-23.286-12.016a81.322,81.322,0,0,0-15.2-1.453,73.832,73.832,0,0,0-18.2,2.232c-9.953,2.51-18.626,8.381-23.8,16.108-4.407,6.465-6.946,14.87-7.344,24.307-.087,5.914-.074,11.939-.062,17.766v.04c.007,3.181.013,6.47,0,9.705a4.708,4.708,0,0,1-1.187,3.177,10.09,10.09,0,0,0-.867,1.427,18.989,18.989,0,0,0,4.347,23.265c1.373.948,1.842,2.539,2.3,4.077l0,.007c.1.348.208.707.323,1.049a73.771,73.771,0,0,0,13.833,24.754v10.191a30.667,30.667,0,0,1-30.691,30.69h-15.347a47.614,47.614,0,0,0-9.6,4.356,81.743,81.743,0,0,0-21.119,17.786Z" transform="translate(-3995 -9465.952)"/>
</svg>
