<?xml version="1.0" standalone="no"?>
<!DOCTYPE svg PUBLIC "-//W3C//DTD SVG 20010904//EN"
 "http://www.w3.org/TR/2001/REC-SVG-20010904/DTD/svg10.dtd">
<svg version="1.0" xmlns="http://www.w3.org/2000/svg"
 width="256.000000pt" height="256.000000pt" viewBox="0 0 256.000000 256.000000"
 preserveAspectRatio="xMidYMid meet">
<metadata>
Created by potrace 1.11, written by Peter Selinger 2001-2013
</metadata>
<g transform="translate(0.000000,256.000000) scale(0.100000,-0.100000)"
fill="#000000" stroke="none">
<path d="M1095 2543 c-533 -88 -939 -471 -1058 -998 -21 -91 -25 -136 -25
-262 0 -84 4 -171 9 -193 5 -22 12 -56 15 -76 10 -67 62 -209 108 -302 85
-170 194 -307 331 -417 28 -22 52 -42 55 -45 30 -30 199 -122 304 -164 156
-64 386 -93 587 -74 302 29 618 193 819 426 30 35 61 70 68 77 6 8 12 18 12
23 0 6 4 12 9 14 16 6 111 181 142 262 61 158 81 267 83 456 3 154 -11 252
-54 391 -133 430 -492 762 -935 864 -128 30 -348 38 -470 18z m69 -315 c-18
-54 -10 -103 23 -137 100 -104 265 -1 219 137 -7 21 -5 23 21 19 42 -7 165
-37 188 -46 256 -103 445 -278 555 -515 39 -82 80 -222 80 -271 0 -22 -3 -24
-19 -15 -55 29 -142 -5 -167 -65 -21 -52 -17 -88 16 -133 24 -33 37 -42 72
-47 24 -4 56 -2 72 5 l29 11 -7 -51 c-10 -72 -42 -174 -82 -260 -134 -283
-412 -492 -727 -545 -37 -6 -38 -6 -30 22 20 75 -6 135 -71 163 -42 19 -72 18
-117 -6 -53 -27 -75 -88 -56 -157 8 -28 7 -28 -25 -22 -18 3 -48 8 -65 11 -55
9 -190 61 -257 98 -212 119 -384 323 -455 538 -30 92 -50 188 -40 194 4 2 20
2 34 -2 88 -22 178 62 160 148 -17 75 -72 114 -150 106 -24 -3 -46 -3 -49 -1
-2 2 2 32 10 66 60 264 168 427 409 615 61 48 216 115 330 143 99 24 108 24
99 -3z"/>
<path d="M1715 1757 c-44 -24 -136 -73 -205 -109 -321 -169 -373 -197 -386
-211 -7 -7 -40 -66 -74 -132 -35 -66 -66 -124 -70 -130 -4 -5 -40 -73 -80
-150 -40 -77 -88 -168 -107 -202 -19 -35 -32 -63 -28 -63 3 0 49 23 103 52 53
29 127 68 164 88 37 19 103 54 145 77 43 22 121 64 173 91 52 28 98 57 103 64
8 15 190 358 279 528 34 63 65 121 71 128 16 21 -5 13 -88 -31z m-373 -368
c14 -6 36 -30 49 -54 20 -38 22 -47 11 -83 -18 -58 -62 -92 -121 -92 -40 0
-52 5 -79 33 -63 65 -49 157 30 196 41 20 62 20 110 0z"/>
</g>
</svg>
